<svg t="1717402008888" class="icon" viewBox="0 0 1024 1024" version="1.1" xmlns="http://www.w3.org/2000/svg" p-id="6033" width="200" height="200"><path d="M645.973333 294.4c-18.346667 0-33.706667-15.786667-33.706666-34.986667 0-19.2 14.933333-34.986667 33.706666-34.986666h167.68c18.346667 0 33.706667 15.786667 33.706667 34.986666 0 19.2-14.933333 34.986667-33.706667 34.986667v136.96c97.706667 35.84 167.68 132.693333 167.68 246.186667 0 72.533333-29.013333 142.08-80.64 191.573333h46.933334c18.346667 0 33.706667 15.786667 33.706666 34.986667s-14.933333 34.56-33.706666 34.56H76.373333c-18.773333 0-33.706667-15.786667-33.706666-34.986667s14.933333-34.986667 33.706666-34.986667h18.346667c-5.546667-27.733333 2.133333-55.893333 20.48-76.8l195.84-223.146666V228.693333c-27.733333-18.773333-40.106667-54.613333-30.293333-87.893333 9.386667-32.853333 38.826667-55.466667 72.106666-55.466667h184.32c33.28 0 62.72 22.613333 72.106667 55.466667s-2.56 68.693333-30.293333 87.893333v239.786667c20.48-15.786667 43.093333-28.586667 66.986666-37.546667V294.4z m100.693334 0h-33.706667v186.026667l-44.8 16.213333c-36.266667 13.226667-67.413333 37.973333-89.6 70.4v1.706667l195.84 223.146666c15.36 17.493333 23.04 40.533333 21.76 64 68.693333-27.733333 117.333333-97.28 117.333333-178.346666 0-81.92-49.92-154.026667-122.88-180.48l-44.8-16.213334V294.4zM164.693333 839.253333c-6.4 7.253333-5.973333 19.2 0.853334 25.6 2.56 2.56 5.973333 4.266667 9.386666 4.266667h540.16c7.68 0 14.933333-7.253333 14.933334-17.493333 0-4.693333-1.706667-9.386667-4.693334-12.373334l-213.333333-243.2V191.573333l29.866667-20.48c2.986667-2.133333 4.693333-5.973333 3.413333-9.813333a8.234667 8.234667 0 0 0-8.106667-6.4H352.853333c-3.84 0-6.826667 2.56-8.106666 6.4-1.28 3.413333 0.426667 7.68 3.413333 9.813333l29.866667 20.48v404.48l-213.333334 243.2z" fill-opacity=".64" p-id="6034"></path></svg>
